<mxfile host="app.diagrams.net" modified="2024-02-16T18:31:02.080Z" agent="Mozilla/5.0 (Windows NT 10.0; Win64; x64) AppleWebKit/537.36 (KHTML, like Gecko) Chrome/121.0.0.0 Safari/537.36" etag="Qeab5h4H8myOwW8RY4xk" version="23.1.5" type="device">
  <diagram name="Страница — 1" id="Layrc5BZ7pRTJc2lWRi6">
    <mxGraphModel dx="1843" dy="757" grid="1" gridSize="10" guides="1" tooltips="1" connect="1" arrows="1" fold="1" page="1" pageScale="1" pageWidth="1654" pageHeight="1169" math="0" shadow="0">
      <root>
        <mxCell id="0" />
        <mxCell id="1" parent="0" />
        <mxCell id="GzbmCxABgu6CoBN2H1Wg-23" style="edgeStyle=orthogonalEdgeStyle;rounded=0;orthogonalLoop=1;jettySize=auto;html=1;exitX=1;exitY=0.3333333333333333;exitDx=0;exitDy=0;exitPerimeter=0;entryX=0;entryY=0.5;entryDx=0;entryDy=0;" edge="1" parent="1" source="GzbmCxABgu6CoBN2H1Wg-1" target="GzbmCxABgu6CoBN2H1Wg-12">
          <mxGeometry relative="1" as="geometry" />
        </mxCell>
        <mxCell id="GzbmCxABgu6CoBN2H1Wg-1" value="Клиент" style="shape=umlActor;verticalLabelPosition=bottom;verticalAlign=top;html=1;outlineConnect=0;" vertex="1" parent="1">
          <mxGeometry x="310" y="140" width="30" height="60" as="geometry" />
        </mxCell>
        <mxCell id="GzbmCxABgu6CoBN2H1Wg-70" style="edgeStyle=orthogonalEdgeStyle;rounded=0;orthogonalLoop=1;jettySize=auto;html=1;exitX=0;exitY=0.3333333333333333;exitDx=0;exitDy=0;exitPerimeter=0;entryX=1;entryY=0.5;entryDx=0;entryDy=0;" edge="1" parent="1" source="GzbmCxABgu6CoBN2H1Wg-5" target="GzbmCxABgu6CoBN2H1Wg-58">
          <mxGeometry relative="1" as="geometry" />
        </mxCell>
        <mxCell id="GzbmCxABgu6CoBN2H1Wg-5" value="Админ" style="shape=umlActor;verticalLabelPosition=bottom;verticalAlign=top;html=1;outlineConnect=0;" vertex="1" parent="1">
          <mxGeometry x="1210" y="120" width="30" height="60" as="geometry" />
        </mxCell>
        <mxCell id="GzbmCxABgu6CoBN2H1Wg-6" value="" style="whiteSpace=wrap;html=1;aspect=fixed;" vertex="1" parent="1">
          <mxGeometry x="360" y="20" width="830" height="830" as="geometry" />
        </mxCell>
        <mxCell id="GzbmCxABgu6CoBN2H1Wg-10" value="управление корзиной" style="ellipse;whiteSpace=wrap;html=1;" vertex="1" parent="1">
          <mxGeometry x="420" y="80" width="120" height="30" as="geometry" />
        </mxCell>
        <mxCell id="GzbmCxABgu6CoBN2H1Wg-11" value="Оформление доставки" style="ellipse;whiteSpace=wrap;html=1;" vertex="1" parent="1">
          <mxGeometry x="420" y="260" width="120" height="30" as="geometry" />
        </mxCell>
        <mxCell id="GzbmCxABgu6CoBN2H1Wg-12" value="управление аккаунтом" style="ellipse;whiteSpace=wrap;html=1;" vertex="1" parent="1">
          <mxGeometry x="420" y="170" width="120" height="30" as="geometry" />
        </mxCell>
        <mxCell id="GzbmCxABgu6CoBN2H1Wg-13" value="Просмотр товара на складе" style="ellipse;whiteSpace=wrap;html=1;" vertex="1" parent="1">
          <mxGeometry x="420" y="350" width="120" height="30" as="geometry" />
        </mxCell>
        <mxCell id="GzbmCxABgu6CoBN2H1Wg-14" value="Добавить товар" style="ellipse;whiteSpace=wrap;html=1;" vertex="1" parent="1">
          <mxGeometry x="590" y="30" width="120" height="30" as="geometry" />
        </mxCell>
        <mxCell id="GzbmCxABgu6CoBN2H1Wg-15" value="Удалить товар" style="ellipse;whiteSpace=wrap;html=1;" vertex="1" parent="1">
          <mxGeometry x="590" y="90" width="120" height="30" as="geometry" />
        </mxCell>
        <mxCell id="GzbmCxABgu6CoBN2H1Wg-16" value="Extend" style="endArrow=open;endSize=12;dashed=1;html=1;rounded=0;exitX=0;exitY=0.5;exitDx=0;exitDy=0;entryX=1;entryY=0.5;entryDx=0;entryDy=0;" edge="1" parent="1" source="GzbmCxABgu6CoBN2H1Wg-14" target="GzbmCxABgu6CoBN2H1Wg-10">
          <mxGeometry width="160" relative="1" as="geometry">
            <mxPoint x="540" y="240" as="sourcePoint" />
            <mxPoint x="700" y="240" as="targetPoint" />
          </mxGeometry>
        </mxCell>
        <mxCell id="GzbmCxABgu6CoBN2H1Wg-24" style="edgeStyle=orthogonalEdgeStyle;rounded=0;orthogonalLoop=1;jettySize=auto;html=1;exitX=1;exitY=0.3333333333333333;exitDx=0;exitDy=0;exitPerimeter=0;entryX=0;entryY=0.5;entryDx=0;entryDy=0;" edge="1" parent="1" source="GzbmCxABgu6CoBN2H1Wg-1" target="GzbmCxABgu6CoBN2H1Wg-12">
          <mxGeometry relative="1" as="geometry" />
        </mxCell>
        <mxCell id="GzbmCxABgu6CoBN2H1Wg-22" style="edgeStyle=orthogonalEdgeStyle;rounded=0;orthogonalLoop=1;jettySize=auto;html=1;exitX=1;exitY=0.3333333333333333;exitDx=0;exitDy=0;exitPerimeter=0;entryX=0;entryY=0.5;entryDx=0;entryDy=0;" edge="1" parent="1" source="GzbmCxABgu6CoBN2H1Wg-1" target="GzbmCxABgu6CoBN2H1Wg-10">
          <mxGeometry relative="1" as="geometry" />
        </mxCell>
        <mxCell id="GzbmCxABgu6CoBN2H1Wg-26" style="edgeStyle=orthogonalEdgeStyle;rounded=0;orthogonalLoop=1;jettySize=auto;html=1;exitX=1;exitY=0.3333333333333333;exitDx=0;exitDy=0;exitPerimeter=0;entryX=0;entryY=0.5;entryDx=0;entryDy=0;" edge="1" parent="1" source="GzbmCxABgu6CoBN2H1Wg-1" target="GzbmCxABgu6CoBN2H1Wg-11">
          <mxGeometry relative="1" as="geometry" />
        </mxCell>
        <mxCell id="GzbmCxABgu6CoBN2H1Wg-27" style="edgeStyle=orthogonalEdgeStyle;rounded=0;orthogonalLoop=1;jettySize=auto;html=1;exitX=1;exitY=0.3333333333333333;exitDx=0;exitDy=0;exitPerimeter=0;entryX=0;entryY=0.5;entryDx=0;entryDy=0;" edge="1" parent="1" source="GzbmCxABgu6CoBN2H1Wg-1" target="GzbmCxABgu6CoBN2H1Wg-13">
          <mxGeometry relative="1" as="geometry" />
        </mxCell>
        <mxCell id="GzbmCxABgu6CoBN2H1Wg-28" value="Extend" style="endArrow=open;endSize=12;dashed=1;html=1;rounded=0;exitX=0;exitY=0.5;exitDx=0;exitDy=0;entryX=1;entryY=0.5;entryDx=0;entryDy=0;" edge="1" parent="1" source="GzbmCxABgu6CoBN2H1Wg-15" target="GzbmCxABgu6CoBN2H1Wg-10">
          <mxGeometry width="160" relative="1" as="geometry">
            <mxPoint x="600" y="65" as="sourcePoint" />
            <mxPoint x="550" y="105" as="targetPoint" />
          </mxGeometry>
        </mxCell>
        <mxCell id="GzbmCxABgu6CoBN2H1Wg-31" value="Склад" style="text;html=1;align=center;verticalAlign=middle;whiteSpace=wrap;rounded=0;" vertex="1" parent="1">
          <mxGeometry x="360" y="20" width="60" height="30" as="geometry" />
        </mxCell>
        <mxCell id="GzbmCxABgu6CoBN2H1Wg-34" value="Удалить аккаунт" style="ellipse;whiteSpace=wrap;html=1;" vertex="1" parent="1">
          <mxGeometry x="590" y="150" width="120" height="30" as="geometry" />
        </mxCell>
        <mxCell id="GzbmCxABgu6CoBN2H1Wg-35" value="Изменить данные аккаунта" style="ellipse;whiteSpace=wrap;html=1;" vertex="1" parent="1">
          <mxGeometry x="590" y="190" width="120" height="30" as="geometry" />
        </mxCell>
        <mxCell id="GzbmCxABgu6CoBN2H1Wg-36" value="Extend" style="endArrow=open;endSize=12;dashed=1;html=1;rounded=0;exitX=0;exitY=0.5;exitDx=0;exitDy=0;entryX=1;entryY=0.5;entryDx=0;entryDy=0;" edge="1" parent="1" source="GzbmCxABgu6CoBN2H1Wg-35" target="GzbmCxABgu6CoBN2H1Wg-12">
          <mxGeometry width="160" relative="1" as="geometry">
            <mxPoint x="600" y="135" as="sourcePoint" />
            <mxPoint x="550" y="105" as="targetPoint" />
          </mxGeometry>
        </mxCell>
        <mxCell id="GzbmCxABgu6CoBN2H1Wg-37" value="Extend" style="endArrow=open;endSize=12;dashed=1;html=1;rounded=0;exitX=0;exitY=0.5;exitDx=0;exitDy=0;entryX=1;entryY=0.5;entryDx=0;entryDy=0;" edge="1" parent="1" source="GzbmCxABgu6CoBN2H1Wg-34" target="GzbmCxABgu6CoBN2H1Wg-12">
          <mxGeometry width="160" relative="1" as="geometry">
            <mxPoint x="610" y="145" as="sourcePoint" />
            <mxPoint x="560" y="115" as="targetPoint" />
          </mxGeometry>
        </mxCell>
        <mxCell id="GzbmCxABgu6CoBN2H1Wg-39" value="Выбрать способ оплаты" style="ellipse;whiteSpace=wrap;html=1;" vertex="1" parent="1">
          <mxGeometry x="767" y="260" width="120" height="40" as="geometry" />
        </mxCell>
        <mxCell id="GzbmCxABgu6CoBN2H1Wg-41" value="Выбрать способ доставки(курьер, самовывоз)" style="ellipse;whiteSpace=wrap;html=1;" vertex="1" parent="1">
          <mxGeometry x="750" y="310" width="120" height="60" as="geometry" />
        </mxCell>
        <mxCell id="GzbmCxABgu6CoBN2H1Wg-42" value="Указать адрес" style="ellipse;whiteSpace=wrap;html=1;" vertex="1" parent="1">
          <mxGeometry x="750" y="210" width="120" height="30" as="geometry" />
        </mxCell>
        <mxCell id="GzbmCxABgu6CoBN2H1Wg-43" style="edgeStyle=orthogonalEdgeStyle;rounded=0;orthogonalLoop=1;jettySize=auto;html=1;exitX=0.5;exitY=1;exitDx=0;exitDy=0;" edge="1" parent="1" source="GzbmCxABgu6CoBN2H1Wg-13" target="GzbmCxABgu6CoBN2H1Wg-13">
          <mxGeometry relative="1" as="geometry" />
        </mxCell>
        <mxCell id="GzbmCxABgu6CoBN2H1Wg-44" value="Указать данные" style="ellipse;whiteSpace=wrap;html=1;" vertex="1" parent="1">
          <mxGeometry x="590" y="260" width="120" height="30" as="geometry" />
        </mxCell>
        <mxCell id="GzbmCxABgu6CoBN2H1Wg-47" value="include" style="endArrow=open;endSize=12;dashed=1;html=1;rounded=0;exitX=0;exitY=0.5;exitDx=0;exitDy=0;entryX=1;entryY=0.5;entryDx=0;entryDy=0;" edge="1" parent="1" source="GzbmCxABgu6CoBN2H1Wg-44" target="GzbmCxABgu6CoBN2H1Wg-11">
          <mxGeometry width="160" relative="1" as="geometry">
            <mxPoint x="600" y="105" as="sourcePoint" />
            <mxPoint x="550" y="105" as="targetPoint" />
          </mxGeometry>
        </mxCell>
        <mxCell id="GzbmCxABgu6CoBN2H1Wg-48" value="include" style="endArrow=open;endSize=12;dashed=1;html=1;rounded=0;exitX=0;exitY=0.5;exitDx=0;exitDy=0;entryX=1;entryY=0.5;entryDx=0;entryDy=0;" edge="1" parent="1" source="GzbmCxABgu6CoBN2H1Wg-41" target="GzbmCxABgu6CoBN2H1Wg-44">
          <mxGeometry width="160" relative="1" as="geometry">
            <mxPoint x="610" y="285" as="sourcePoint" />
            <mxPoint x="710" y="270" as="targetPoint" />
          </mxGeometry>
        </mxCell>
        <mxCell id="GzbmCxABgu6CoBN2H1Wg-49" value="include" style="endArrow=open;endSize=12;dashed=1;html=1;rounded=0;exitX=0;exitY=0.5;exitDx=0;exitDy=0;entryX=1;entryY=0.5;entryDx=0;entryDy=0;" edge="1" parent="1" source="GzbmCxABgu6CoBN2H1Wg-39" target="GzbmCxABgu6CoBN2H1Wg-44">
          <mxGeometry width="160" relative="1" as="geometry">
            <mxPoint x="620" y="295" as="sourcePoint" />
            <mxPoint x="720" y="275" as="targetPoint" />
          </mxGeometry>
        </mxCell>
        <mxCell id="GzbmCxABgu6CoBN2H1Wg-50" value="include" style="endArrow=open;endSize=12;dashed=1;html=1;rounded=0;exitX=0;exitY=0.5;exitDx=0;exitDy=0;entryX=1;entryY=0.5;entryDx=0;entryDy=0;" edge="1" parent="1" source="GzbmCxABgu6CoBN2H1Wg-42" target="GzbmCxABgu6CoBN2H1Wg-44">
          <mxGeometry width="160" relative="1" as="geometry">
            <mxPoint x="630" y="305" as="sourcePoint" />
            <mxPoint x="570" y="305" as="targetPoint" />
          </mxGeometry>
        </mxCell>
        <mxCell id="GzbmCxABgu6CoBN2H1Wg-51" value="Управление товарами на складе" style="ellipse;whiteSpace=wrap;html=1;" vertex="1" parent="1">
          <mxGeometry x="900" y="65" width="120" height="60" as="geometry" />
        </mxCell>
        <mxCell id="GzbmCxABgu6CoBN2H1Wg-53" value="Extend" style="endArrow=open;endSize=12;dashed=1;html=1;rounded=0;exitX=1;exitY=0.5;exitDx=0;exitDy=0;entryX=0;entryY=0.5;entryDx=0;entryDy=0;" edge="1" parent="1" source="GzbmCxABgu6CoBN2H1Wg-14" target="GzbmCxABgu6CoBN2H1Wg-51">
          <mxGeometry width="160" relative="1" as="geometry">
            <mxPoint x="590" y="55" as="sourcePoint" />
            <mxPoint x="550" y="105" as="targetPoint" />
          </mxGeometry>
        </mxCell>
        <mxCell id="GzbmCxABgu6CoBN2H1Wg-54" value="Extend" style="endArrow=open;endSize=12;dashed=1;html=1;rounded=0;exitX=1;exitY=0.5;exitDx=0;exitDy=0;" edge="1" parent="1" source="GzbmCxABgu6CoBN2H1Wg-15">
          <mxGeometry width="160" relative="1" as="geometry">
            <mxPoint x="710" y="55" as="sourcePoint" />
            <mxPoint x="900" y="95" as="targetPoint" />
          </mxGeometry>
        </mxCell>
        <mxCell id="GzbmCxABgu6CoBN2H1Wg-55" value="Изменить товар" style="ellipse;whiteSpace=wrap;html=1;" vertex="1" parent="1">
          <mxGeometry x="700" y="125" width="120" height="30" as="geometry" />
        </mxCell>
        <mxCell id="GzbmCxABgu6CoBN2H1Wg-56" value="Extend" style="endArrow=open;endSize=12;dashed=1;html=1;rounded=0;exitX=1;exitY=0.5;exitDx=0;exitDy=0;" edge="1" parent="1" source="GzbmCxABgu6CoBN2H1Wg-55">
          <mxGeometry width="160" relative="1" as="geometry">
            <mxPoint x="720" y="115" as="sourcePoint" />
            <mxPoint x="900" y="90" as="targetPoint" />
          </mxGeometry>
        </mxCell>
        <mxCell id="GzbmCxABgu6CoBN2H1Wg-57" style="edgeStyle=orthogonalEdgeStyle;rounded=0;orthogonalLoop=1;jettySize=auto;html=1;exitX=0;exitY=0.3333333333333333;exitDx=0;exitDy=0;exitPerimeter=0;entryX=1;entryY=0.5;entryDx=0;entryDy=0;" edge="1" parent="1" source="GzbmCxABgu6CoBN2H1Wg-5" target="GzbmCxABgu6CoBN2H1Wg-51">
          <mxGeometry relative="1" as="geometry" />
        </mxCell>
        <mxCell id="GzbmCxABgu6CoBN2H1Wg-58" value="Управление заказом" style="ellipse;whiteSpace=wrap;html=1;" vertex="1" parent="1">
          <mxGeometry x="1030" y="170" width="120" height="60" as="geometry" />
        </mxCell>
        <mxCell id="GzbmCxABgu6CoBN2H1Wg-59" value="Изменить заказ" style="ellipse;whiteSpace=wrap;html=1;" vertex="1" parent="1">
          <mxGeometry x="870" y="200" width="120" height="30" as="geometry" />
        </mxCell>
        <mxCell id="GzbmCxABgu6CoBN2H1Wg-60" value="Удалить заказ" style="ellipse;whiteSpace=wrap;html=1;" vertex="1" parent="1">
          <mxGeometry x="870" y="155" width="120" height="30" as="geometry" />
        </mxCell>
        <mxCell id="GzbmCxABgu6CoBN2H1Wg-65" value="Одобрить заказ" style="ellipse;whiteSpace=wrap;html=1;" vertex="1" parent="1">
          <mxGeometry x="900" y="250" width="120" height="30" as="geometry" />
        </mxCell>
        <mxCell id="GzbmCxABgu6CoBN2H1Wg-66" value="Extend" style="endArrow=open;endSize=12;dashed=1;html=1;rounded=0;exitX=1;exitY=0.5;exitDx=0;exitDy=0;entryX=0;entryY=0.5;entryDx=0;entryDy=0;" edge="1" parent="1" source="GzbmCxABgu6CoBN2H1Wg-60" target="GzbmCxABgu6CoBN2H1Wg-58">
          <mxGeometry width="160" relative="1" as="geometry">
            <mxPoint x="830" y="150" as="sourcePoint" />
            <mxPoint x="910" y="100" as="targetPoint" />
          </mxGeometry>
        </mxCell>
        <mxCell id="GzbmCxABgu6CoBN2H1Wg-67" value="Extend" style="endArrow=open;endSize=12;dashed=1;html=1;rounded=0;exitX=1;exitY=0.5;exitDx=0;exitDy=0;" edge="1" parent="1" source="GzbmCxABgu6CoBN2H1Wg-59">
          <mxGeometry width="160" relative="1" as="geometry">
            <mxPoint x="1000" y="180" as="sourcePoint" />
            <mxPoint x="1030" y="200" as="targetPoint" />
          </mxGeometry>
        </mxCell>
        <mxCell id="GzbmCxABgu6CoBN2H1Wg-68" value="Extend" style="endArrow=open;endSize=12;dashed=1;html=1;rounded=0;exitX=1;exitY=0.5;exitDx=0;exitDy=0;entryX=0;entryY=0.5;entryDx=0;entryDy=0;" edge="1" parent="1" source="GzbmCxABgu6CoBN2H1Wg-65" target="GzbmCxABgu6CoBN2H1Wg-58">
          <mxGeometry width="160" relative="1" as="geometry">
            <mxPoint x="1000" y="225" as="sourcePoint" />
            <mxPoint x="1040" y="210" as="targetPoint" />
          </mxGeometry>
        </mxCell>
        <mxCell id="GzbmCxABgu6CoBN2H1Wg-71" style="edgeStyle=orthogonalEdgeStyle;rounded=0;orthogonalLoop=1;jettySize=auto;html=1;exitX=0;exitY=0.3333333333333333;exitDx=0;exitDy=0;exitPerimeter=0;entryX=1;entryY=0.5;entryDx=0;entryDy=0;" edge="1" parent="1" source="GzbmCxABgu6CoBN2H1Wg-5" target="GzbmCxABgu6CoBN2H1Wg-58">
          <mxGeometry relative="1" as="geometry" />
        </mxCell>
      </root>
    </mxGraphModel>
  </diagram>
</mxfile>
